<?xml version="1.0" encoding="UTF-8"?>
<svg width="1370px" height="270px" viewBox="0 0 1370 270" version="1.1" xmlns="http://www.w3.org/2000/svg" xmlns:xlink="http://www.w3.org/1999/xlink">
    <!-- Generator: Sketch 51.2 (57519) - http://www.bohemiancoding.com/sketch -->
    <title>la_sunset</title>
    <desc>Created with Sketch.</desc>
    <defs>
        <linearGradient x1="15.4002568%" y1="50%" x2="100%" y2="50%" id="linearGradient-1">
            <stop stop-color="#FFFFFF" offset="0%"></stop>
            <stop stop-color="#FFFFFF" stop-opacity="0" offset="100%"></stop>
        </linearGradient>
    </defs>
    <g id="la_sunset" stroke="none" stroke-width="1" fill="none" fill-rule="evenodd">
        <ellipse id="sun" fill="#FF4F70" cx="852.5" cy="105.5" rx="105.5" ry="98.5"></ellipse>
        <polygon id="cityscape" fill="#9B5A6F" points="-2 224 -2 163.145447 33.6770833 163.145447 33.6770833 154.35697 83.8533333 154.35697 126.030781 154.35697 126.030781 143.201853 156.534687 143.201853 156.534687 163.145447 202.401146 163.145447 202.401146 143.201853 256.872917 143.201853 256.872917 154.35697 286.277969 154.35697 286.277969 143.201853 354.078698 143.201853 354.078698 131.687752 414.672656 131.687752 414.672656 143.201853 475.973021 143.201853 475.973021 81.5362611 523.559115 50.404311 523.559115 107.150483 523.559115 143.201853 540.34875 143.201853 540.34875 81.5362611 598.017187 81.5362611 598.017187 107.150483 648.614427 107.150483 648.614427 26 700.588802 26 700.588802 163.145447 738.884583 163.145447 738.884583 107.150483 801.490729 107.150483 801.490729 185.508864 817.131562 185.508864 817.131562 125 892.488698 125 892.488698 143.201853 966.946771 143.201853 966.946771 59.3257454 1023.6662 59.3257454 1023.6662 163.145447 1086.90026 163.145447 1086.90026 143.201853 1138.16823 143.201853 1138.16823 163.145447 1159.03932 163.145447 1159.03932 154.35697 1214.41729 154.35697 1214.41729 163.145447 1256.21656 163.145447 1256.21656 154.35697 1279.56365 154.35697 1279.56365 176.447824 1292.53583 176.447824 1292.53583 143.201853 1319.35073 143.201853 1319.35073 131.687752 1368 131.687752 1368 224"></polygon>
        <rect id="bark" fill="#F8F7F4" x="862" y="101" width="6" height="122"></rect>
        <path d="M860,112 C860,112 866.974477,82.2378177 899,88.9994105 C899,88.9994105 895.270746,91.6538388 892.304779,92.1763895 C892.304779,92.1763895 893.715143,93.3304908 895.537376,93.2047777 C895.537376,93.2047777 891.994969,95.2785088 888.687422,95.2386542 C888.687422,95.2386542 889.718105,96.0248155 891.530916,95.9470526 C891.530916,95.9470526 888.287847,98.2249123 886.09344,98.5346931 C886.09344,98.5346931 886.86163,99.2228084 888.277092,98.8745403 C888.277092,98.8745403 885.062333,101.001879 881.332481,100.814052 C881.332481,100.814052 881.923129,101.848898 883.843091,102.092024 C883.843091,102.092024 878.914088,104.369034 876.486122,104.135603 C876.486122,104.135603 876.680743,105.373378 878.612667,105.166814 C878.612861,105.167387 870.252802,111.659556 860,112 Z" id="leaf" fill="#F8F7F4"></path>
        <path d="M855,114.067777 C855,114.067777 877.07095,94.3238974 902,113.103898 C902,113.103898 897.263309,113.543308 894.342503,112.680608 C894.342503,112.680608 894.984093,114.161081 896.674507,114.840156 C896.674507,114.840156 892.413675,114.915928 889.488206,113.478808 C889.488206,113.478808 889.987576,114.517044 891.644048,115.2287 C891.644048,115.2287 887.541137,115.587543 885.421081,114.890636 C885.421081,114.890636 885.738834,115.742418 887.185432,116.078671 C887.185432,116.078671 883.187941,116.334699 879.965079,114.60506 C879.965079,114.60506 879.93992,115.645908 881.520883,116.647991 C881.520883,116.647991 875.916421,116.289153 873.877711,115.078412 C873.877711,115.078412 873.391609,116.105674 875.222825,116.769707 C875.222692,116.770227 864.315644,118.168544 855,114.067777 Z" id="leaf5" fill="#F8F7F4"></path>
        <path d="M862,106 C862,106 894.356383,111.56289 888.227597,142 C888.227597,142 885.228809,138.573138 884.55731,135.793471 C884.55731,135.793471 883.363733,137.1631 883.565595,138.877538 C883.565595,138.877538 881.199966,135.607097 881.122681,132.486064 C881.122681,132.486064 880.312172,133.485025 880.461971,135.192212 C880.461971,135.192212 877.887044,132.211071 877.473105,130.15188 C877.473105,130.15188 876.758809,130.899911 877.185937,132.223091 C877.185937,132.223091 874.774398,129.263516 874.841367,125.739118 C874.841367,125.739118 873.746614,126.331523 873.554185,128.150723 C873.554185,128.150723 870.918869,123.579382 871.082368,121.281365 C871.082368,121.281365 869.754328,121.507161 870.047389,123.322301 C870.046778,123.322504 862.740045,115.65881 862,106 Z" id="leaf6" fill="#F8F7F4"></path>
        <path d="M911,141.036451 C911,141.036451 943.27117,138.720941 946,171 C946,171 942.191723,168.270982 940.773977,165.625235 C940.773977,165.625235 940.0257,167.302972 940.698638,168.98691 C940.698638,168.98691 937.535208,166.260674 936.585584,163.123952 C936.585584,163.123952 936.096806,164.332902 936.718296,166.022285 C936.718296,166.022285 933.437447,163.639922 932.466433,161.659446 C932.466433,161.659446 931.998517,162.59107 932.775403,163.824126 C932.775403,163.824126 929.65568,161.423474 928.729717,157.843508 C928.729717,157.843508 927.857018,158.71114 928.185149,160.597761 C928.185149,160.597761 924.400515,156.622362 923.910492,154.258706 C923.910492,154.258706 922.713449,154.812907 923.501218,156.576285 C923.500694,156.57664 914.414217,150.620903 911,141.036451 Z" id="leaf7" fill="#F8F7F4"></path>
        <path d="M908,141.205374 C908,141.205374 926.789063,116.436284 954,134.743396 C954,134.743396 949.413986,135.780258 946.420828,135.142385 C946.420828,135.142385 947.266509,136.73698 949.025007,137.308708 C949.025007,137.308708 944.853139,137.881446 941.771662,136.596933 C941.771662,136.596933 942.413256,137.709546 944.143181,138.321865 C944.143181,138.321865 940.167612,139.195462 937.98473,138.652786 C937.98473,138.652786 938.420846,139.576105 939.89001,139.789479 C939.89001,139.789479 936.002944,140.535181 932.58687,138.955117 C932.58687,138.955117 932.713907,140.130671 934.412043,141.078837 C934.412043,141.078837 928.857758,141.315608 926.679827,140.184715 C926.679827,140.184715 926.352369,141.397687 928.246901,141.936362 C928.246847,141.936963 917.743103,144.759969 908,141.205374 Z" id="leaf9" fill="#F8F7F4"></path>
        <path d="M912,141.036451 C908.585783,150.620903 899.499306,156.57664 899.498782,156.576285 C900.286551,154.812907 899.089508,154.258706 899.089508,154.258706 C898.599485,156.622362 894.814851,160.597761 894.814851,160.597761 C895.142982,158.71114 894.270283,157.843508 894.270283,157.843508 C893.34432,161.423474 890.224597,163.824126 890.224597,163.824126 C891.001483,162.59107 890.533567,161.659446 890.533567,161.659446 C889.562553,163.639922 886.281704,166.022285 886.281704,166.022285 C886.903194,164.332902 886.414416,163.123952 886.414416,163.123952 C885.464792,166.260674 882.301362,168.98691 882.301362,168.98691 C882.9743,167.302972 882.226023,165.625235 882.226023,165.625235 C880.808277,168.270982 877,171 877,171 C879.72883,138.720941 912,141.036451 912,141.036451 Z" id="leaf8" fill="#F8F7F4"></path>
        <path d="M914,141.205374 C904.256897,144.759969 893.753153,141.936963 893.753099,141.936362 C895.647631,141.397687 895.320173,140.184715 895.320173,140.184715 C893.142242,141.315608 887.587957,141.078837 887.587957,141.078837 C889.286093,140.130671 889.41313,138.955117 889.41313,138.955117 C885.997056,140.535181 882.10999,139.789479 882.10999,139.789479 C883.579154,139.576105 884.01527,138.652786 884.01527,138.652786 C881.832388,139.195462 877.856819,138.321865 877.856819,138.321865 C879.586744,137.709546 880.228338,136.596933 880.228338,136.596933 C877.146861,137.881446 872.974993,137.308708 872.974993,137.308708 C874.733491,136.73698 875.579172,135.142385 875.579172,135.142385 C872.586014,135.780258 868,134.743396 868,134.743396 C895.210937,116.436284 914,141.205374 914,141.205374 Z" id="leaf10" fill="#F8F7F4"></path>
        <path d="M870,112 C859.747198,111.659556 851.387139,105.167387 851.387333,105.166814 C853.319257,105.373378 853.513878,104.135603 853.513878,104.135603 C851.085912,104.369034 846.156909,102.092024 846.156909,102.092024 C848.076871,101.848898 848.667519,100.814052 848.667519,100.814052 C844.937667,101.001879 841.722908,98.8745403 841.722908,98.8745403 C843.13837,99.2228084 843.90656,98.5346931 843.90656,98.5346931 C841.712153,98.2249123 838.469084,95.9470526 838.469084,95.9470526 C840.281895,96.0248155 841.312578,95.2386542 841.312578,95.2386542 C838.005031,95.2785088 834.462624,93.2047777 834.462624,93.2047777 C836.284857,93.3304908 837.695221,92.1763895 837.695221,92.1763895 C834.729254,91.6538388 831,88.9994105 831,88.9994105 C863.025523,82.2378177 870,112 870,112 Z" id="leaf2" fill="#F8F7F4"></path>
        <path d="M875,112.665544 C865.320767,116.609378 854.51323,114.363018 854.513141,114.362434 C856.403794,113.744474 856.003873,112.576022 856.003873,112.576022 C853.859052,113.785988 848.214453,113.824508 848.214453,113.824508 C849.883056,112.816255 849.946031,111.662269 849.946031,111.662269 C846.571039,113.370931 842.588293,112.831571 842.588293,112.831571 C844.065891,112.551892 844.456356,111.629181 844.456356,111.629181 C842.273577,112.265049 838.193938,111.605109 838.193938,111.605109 C839.913577,110.923236 840.501771,109.805719 840.501771,109.805719 C837.44947,111.209556 833.187655,110.852908 833.187655,110.852908 C834.938535,110.209281 835.706661,108.611244 835.706661,108.611244 C832.707695,109.379409 828,108.589699 828,108.589699 C854.563342,89.3932179 875,112.665544 875,112.665544 Z" id="leaf3" fill="#F8F7F4"></path>
        <path d="M868,106 C867.259955,115.65881 859.953222,123.322504 859.952611,123.322301 C860.245672,121.507161 858.917632,121.281365 858.917632,121.281365 C859.081131,123.579382 856.445815,128.150723 856.445815,128.150723 C856.253386,126.331523 855.158633,125.739118 855.158633,125.739118 C855.225602,129.263516 852.814063,132.223091 852.814063,132.223091 C853.241191,130.899911 852.526895,130.15188 852.526895,130.15188 C852.112956,132.211071 849.538029,135.192212 849.538029,135.192212 C849.687828,133.485025 848.877319,132.486064 848.877319,132.486064 C848.800034,135.607097 846.434405,138.877538 846.434405,138.877538 C846.636267,137.1631 845.44269,135.793471 845.44269,135.793471 C844.771191,138.573138 841.772403,142 841.772403,142 C835.643617,111.56289 868,106 868,106 Z" id="leaf4" fill="#F8F7F4"></path>
        <path d="M816,140.816877 C811.022687,149.510923 801.218768,153.769039 801.218326,153.76861 C802.287861,152.195276 801.232027,151.463452 801.232027,151.463452 C800.343695,153.66535 795.997054,156.882288 795.997054,156.882288 C796.645404,155.114429 795.957278,154.133237 795.957278,154.133237 C794.434738,157.438011 791.00604,159.243576 791.00604,159.243576 C791.971715,158.180546 791.684885,157.204068 791.684885,157.204068 C790.40056,158.956931 786.819829,160.718363 786.819829,160.718363 C787.716117,159.18916 787.458014,157.941461 787.458014,157.941461 C785.990719,160.81434 782.462581,162.927116 782.462581,162.927116 C783.407484,161.411624 782.98188,159.668616 782.98188,159.668616 C781.149971,161.990485 777,164 777,164 C785.312758,133.278838 816,140.816877 816,140.816877 Z" id="leaf11" fill="#F8F7F4"></path>
        <path d="M816,143.014668 C806.018833,145.680292 795.866557,142.093041 795.866558,142.092453 C797.793445,141.722189 797.57974,140.518207 797.57974,140.518207 C795.317862,141.440572 789.83466,140.763038 789.83466,140.763038 C791.604318,139.979398 791.837642,138.848374 791.837642,138.848374 C788.3076,140.107016 784.52328,139.069772 784.52328,139.069772 C785.998861,138.981035 786.515463,138.1198 786.515463,138.1198 C784.302427,138.470708 780.442078,137.302167 780.442078,137.302167 C782.212554,136.84714 782.950102,135.818693 782.950102,135.818693 C779.778685,136.817373 775.696293,135.925094 775.696293,135.925094 C777.491378,135.511776 778.475238,134.031856 778.475238,134.031856 C775.450441,134.409877 771,133.033633 771,133.033633 C799.641519,117.453712 816,143.014668 816,143.014668 Z" id="leaf13" fill="#F8F7F4"></path>
        <path d="M814.961119,140 C804.737703,136.780881 798.384918,128.213631 798.385296,128.213138 C800.266233,128.955891 800.85738,127.827251 800.85738,127.827251 C798.336148,127.365229 794.095721,123.796859 794.095721,123.796859 C796.108117,124.10624 797.033592,123.28341 797.033592,123.28341 C793.214961,122.410359 790.654266,119.468905 790.654266,119.468905 C791.969526,120.201398 792.963258,119.76022 792.963258,119.76022 C790.85075,118.844693 788.309563,115.751321 788.309563,115.751321 C790.111571,116.337297 791.401117,115.876449 791.401117,115.876449 C788.055281,114.98109 785.147296,111.998427 785.147296,111.998427 C786.943497,112.632912 788.733083,111.927393 788.733083,111.927393 C785.910953,110.590661 783,107 783,107 C817.430996,109.572897 814.961119,140 814.961119,140 Z" id="leaf15" fill="#F8F7F4"></path>
        <path d="M812.038881,140 C812.038881,140 809.569004,109.572897 844,107 C844,107 841.089047,110.590661 838.266917,111.927393 C838.266917,111.927393 840.056503,112.632912 841.852704,111.998427 C841.852704,111.998427 838.944719,114.98109 835.598883,115.876449 C835.598883,115.876449 836.888429,116.337297 838.690437,115.751321 C838.690437,115.751321 836.14925,118.844693 834.036742,119.76022 C834.036742,119.76022 835.030474,120.201398 836.345734,119.468905 C836.345734,119.468905 833.785039,122.410359 829.966408,123.28341 C829.966408,123.28341 830.891883,124.10624 832.904279,123.796859 C832.904279,123.796859 828.663852,127.365229 826.14262,127.827251 C826.14262,127.827251 826.733767,128.955891 828.614704,128.213138 C828.615082,128.213631 822.262297,136.780881 812.038881,140 Z" id="leaf16" fill="#F8F7F4"></path>
        <path d="M812,143.014668 C812,143.014668 828.358481,117.453712 857,133.033633 C857,133.033633 852.549559,134.409877 849.524762,134.031856 C849.524762,134.031856 850.508622,135.511776 852.303707,135.925094 C852.303707,135.925094 848.221315,136.817373 845.049898,135.818693 C845.049898,135.818693 845.787446,136.84714 847.557922,137.302167 C847.557922,137.302167 843.697573,138.470708 841.484537,138.1198 C841.484537,138.1198 842.001139,138.981035 843.47672,139.069772 C843.47672,139.069772 839.6924,140.107016 836.162358,138.848374 C836.162358,138.848374 836.395682,139.979398 838.16534,140.763038 C838.16534,140.763038 832.682138,141.440572 830.42026,140.518207 C830.42026,140.518207 830.206555,141.722189 832.133442,142.092453 C832.133443,142.093041 821.981167,145.680292 812,143.014668 Z" id="leaf14" fill="#F8F7F4"></path>
        <path d="M811,140.816877 C811,140.816877 841.687242,133.278838 850,164 C850,164 845.850029,161.990485 844.01812,159.668616 C844.01812,159.668616 843.592516,161.411624 844.537419,162.927116 C844.537419,162.927116 841.009281,160.81434 839.541986,157.941461 C839.541986,157.941461 839.283883,159.18916 840.180171,160.718363 C840.180171,160.718363 836.59944,158.956931 835.315115,157.204068 C835.315115,157.204068 835.028285,158.180546 835.99396,159.243576 C835.99396,159.243576 832.565262,157.438011 831.042722,154.133237 C831.042722,154.133237 830.354596,155.114429 831.002946,156.882288 C831.002946,156.882288 826.656305,153.66535 825.767973,151.463452 C825.767973,151.463452 824.712139,152.195276 825.781674,153.76861 C825.781232,153.769039 815.977313,149.510923 811,140.816877 Z" id="leaf12" fill="#F8F7F4"></path>
        <path d="M904.158561,227.985254 C903.34647,228.120021 902.395178,227.326083 901.724835,225.807533 C900.791851,223.694426 900.75484,220.980639 901.641103,219.743998 C909.420032,208.888932 916.965867,186.727747 908.734586,142.793083 C908.277603,140.353925 908.880841,138.214725 910.084282,138.015014 C911.287724,137.815303 912.631982,139.631316 913.088965,142.070474 C922.180839,190.598573 913.716672,215.254095 905.016679,227.393702 C904.768028,227.739521 904.473165,227.933045 904.158561,227.985254 Z" id="bark3" fill="#F8F7F4"></path>
        <path d="M823.478732,227 C811.424324,223.806516 803.288896,165.584212 811.039187,138 L816.949335,138.906163 C810.970302,160.169552 817.92374,213.249958 827,215.654463 L823.478732,227 Z" id="bark2" fill="#F8F7F4"></path>
        <polygon id="landscape" fill="#F8F7F4" points="-2 196 79.4650521 199.656153 176.813542 197.828076 386.259427 202.776013 545.215104 199.388006 787.840677 202.776013 923.68474 199.656153 1083.23266 197.828076 1217.81375 202.776013 1305.61505 197.828076 1368 197.828076 1368 224 -2 224"></polygon>
        <path d="M728,225.142313 C728,225.142313 736.903355,225.0266 743.917785,226.311916 C747.682781,227.001809 751.376279,227.826669 752.440301,228.621356 C755.419748,230.84662 738.589634,231.35301 741.968796,233.628805 C743.525296,234.677075 756.288608,235.29373 780.258731,235.478769 C790.981384,235.561543 817.374376,234.458917 820.284547,235.478769 C823.194717,236.49862 773.345101,239.973763 772.023919,242.859178 C770.702737,245.744594 803.314503,243.757009 799.642421,245.741925 C796.443014,247.47134 781.956624,246.997022 772.023919,248.565556 C757.672367,250.831896 746.615452,254.013694 751.922317,254.625811 C752.604106,254.704451 753.658979,254.730447 755.080214,254.714207 C762.408249,254.630476 779.476178,253.423908 805.362781,252.52143 C812.680558,252.266312 826.794476,251.793654 837.534449,251.551346 C846.132742,251.357356 852.571728,251.149022 851.605928,252.52143 C850.60841,253.938911 836.01545,254.603186 822.817109,256.353324 C816.151173,257.237246 797.933545,259.378651 797.242869,260.369136 C796.741712,261.087835 796.970744,262.450984 798.172606,262.738719 C800.809507,263.370014 807.924733,262.647031 820.284547,262.738719 C836.844654,262.861567 870.40797,260.590745 896.529233,259.26645 C922.650496,257.942155 947.330845,258.562802 946.234233,256.353324 C945.696437,255.26976 936.36562,254.838505 926.82092,254.315278 C916.903184,253.771602 907.631284,253.09357 905.999785,251.551346 C902.508919,248.2515 943.665071,245.924383 940.454956,244.275509 C937.244841,242.626636 895.093383,245.224372 878.70957,244.785799 C874.196759,244.664997 874.991274,243.279068 875.267133,242.859178 C876.091107,241.604994 885.702246,239.198356 903.107468,237.859735 C919.759113,236.579071 944.207332,236.358694 946.234233,235.478769 C950.379765,233.679097 895.621719,234.986932 896.529233,233.628805 C896.728358,233.330808 898.95816,231.714903 901.813067,231.46695 C910.867687,230.680544 933.494097,230.473665 944.543701,229.949423 C948.243306,229.773898 950.003172,229.586925 950.474066,229.010334 C950.944961,228.433744 947.984854,227.859509 944.024602,227.415217 C939.215236,226.875665 932.386043,226.981259 931.230675,225.980309 C929.63778,224.60031 949.092215,225.142313 950.474066,225.142313 C961.108687,225.142313 958.60398,212.57022 923.171577,212.57022 C889.251896,212.57022 829.903034,209.037225 785.684314,212.57022 C752.995654,215.181984 728,225.142313 728,225.142313 Z" id="reflection" fill="#F8F7F4"></path>
        <rect id="fade-left" fill="url(#linearGradient-1)" x="-2" y="0" width="35" height="270"></rect>
        <rect id="fade-right" fill="url(#linearGradient-1)" transform="translate(1350.500000, 135.000000) scale(-1, 1) translate(-1350.500000, -135.000000) " x="1333" y="0" width="35" height="270"></rect>
    </g>
</svg>